<svg width="393" height="305" viewBox="0 0 393 305" fill="none" xmlns="http://www.w3.org/2000/svg">
    <rect x="11.3721" y="25" width="0.383039" height="280" fill="#D0D5DF" fill-opacity="0.5" />
    <rect x="39.7031" y="25" width="0.383039" height="280" fill="#D0D5DF" fill-opacity="0.5" />
    <rect x="68.0352" y="25" width="0.383039" height="280" fill="#D0D5DF" fill-opacity="0.5" />
    <rect x="96.3662" y="25" width="0.383039" height="280" fill="#D0D5DF" fill-opacity="0.5" />
    <rect x="124.698" y="25" width="0.383039" height="280" fill="#D0D5DF" fill-opacity="0.5" />
    <rect x="153.029" y="25" width="0.383039" height="280" fill="#D0D5DF" fill-opacity="0.5" />
    <rect x="181.361" y="25" width="0.383039" height="280" fill="#D0D5DF" fill-opacity="0.5" />
    <rect x="209.692" y="25" width="0.383039" height="280" fill="#D0D5DF" fill-opacity="0.5" />
    <rect x="238.024" y="25" width="0.383039" height="280" fill="#D0D5DF" fill-opacity="0.5" />
    <rect x="266.355" y="25" width="0.383039" height="280" fill="#D0D5DF" fill-opacity="0.5" />
    <rect x="294.688" y="25" width="0.383039" height="280" fill="#D0D5DF" fill-opacity="0.5" />
    <rect x="323.019" y="25" width="0.383039" height="280" fill="#D0D5DF" fill-opacity="0.5" />
    <rect x="351.351" y="25" width="0.383039" height="280" fill="#D0D5DF" fill-opacity="0.5" />
    <rect x="379.682" y="25" width="0.383039" height="280" fill="#D0D5DF" fill-opacity="0.5" />
    <rect x="393" y="31.7836" width="0.476377" height="393" transform="rotate(90 393 31.7836)" fill="#D0D5DF"
        fill-opacity="0.5" />
    <rect x="393" y="44.4483" width="0.476377" height="393" transform="rotate(90 393 44.4483)" fill="#D0D5DF"
        fill-opacity="0.5" />
    <rect x="393" y="57.1123" width="0.476377" height="393" transform="rotate(90 393 57.1123)" fill="#D0D5DF"
        fill-opacity="0.5" />
    <rect x="393" y="69.7767" width="0.476377" height="393" transform="rotate(90 393 69.7767)" fill="#D0D5DF"
        fill-opacity="0.5" />
    <rect x="393" y="82.4419" width="0.476377" height="393" transform="rotate(90 393 82.4419)" fill="#D0D5DF"
        fill-opacity="0.5" />
    <rect x="393" y="95.1059" width="0.476377" height="393" transform="rotate(90 393 95.1059)" fill="#D0D5DF"
        fill-opacity="0.5" />
    <rect x="393" y="107.77" width="0.476377" height="393" transform="rotate(90 393 107.77)" fill="#D0D5DF"
        fill-opacity="0.5" />
    <rect x="393" y="120.435" width="0.476377" height="393" transform="rotate(90 393 120.435)" fill="#D0D5DF"
        fill-opacity="0.5" />
    <rect x="393" y="133.1" width="0.476377" height="393" transform="rotate(90 393 133.1)" fill="#D0D5DF"
        fill-opacity="0.5" />
    <rect x="393" y="145.764" width="0.476377" height="393" transform="rotate(90 393 145.764)" fill="#D0D5DF"
        fill-opacity="0.5" />
    <rect x="393" y="158.429" width="0.476377" height="393" transform="rotate(90 393 158.429)" fill="#D0D5DF"
        fill-opacity="0.5" />
    <rect x="393" y="171.093" width="0.476377" height="393" transform="rotate(90 393 171.093)" fill="#D0D5DF"
        fill-opacity="0.5" />
    <rect x="393" y="183.758" width="0.476377" height="393" transform="rotate(90 393 183.758)" fill="#D0D5DF"
        fill-opacity="0.5" />
    <rect x="393" y="196.422" width="0.476377" height="393" transform="rotate(90 393 196.422)" fill="#D0D5DF"
        fill-opacity="0.5" />
    <rect x="393" y="209.086" width="0.476377" height="393" transform="rotate(90 393 209.086)" fill="#D0D5DF"
        fill-opacity="0.5" />
    <rect x="393" y="221.751" width="0.476377" height="393" transform="rotate(90 393 221.751)" fill="#D0D5DF"
        fill-opacity="0.5" />
    <rect x="393" y="234.416" width="0.476377" height="393" transform="rotate(90 393 234.416)" fill="#D0D5DF"
        fill-opacity="0.5" />
    <rect x="393" y="247.08" width="0.476377" height="393" transform="rotate(90 393 247.08)" fill="#D0D5DF"
        fill-opacity="0.5" />
    <rect x="393" y="259.744" width="0.476377" height="393" transform="rotate(90 393 259.744)" fill="#D0D5DF"
        fill-opacity="0.5" />
    <rect x="393" y="272.409" width="0.476377" height="393" transform="rotate(90 393 272.409)" fill="#D0D5DF"
        fill-opacity="0.5" />
    <rect x="393" y="285.073" width="0.476377" height="393" transform="rotate(90 393 285.073)" fill="#D0D5DF"
        fill-opacity="0.5" />
    <rect x="393" y="297.738" width="0.476377" height="393" transform="rotate(90 393 297.738)" fill="#D0D5DF"
        fill-opacity="0.5" />
    <g filter="url(#filter0_f_817_47528)">
        <rect x="56.6436" y="63.5516" width="278.596" height="202.897" rx="74.5039" fill="#F7F8FA" />
    </g>
    <defs>
        <filter id="filter0_f_817_47528" x="-6.09655" y="0.811531" width="404.076" height="328.377"
            filterUnits="userSpaceOnUse" color-interpolation-filters="sRGB">
            <feFlood flood-opacity="0" result="BackgroundImageFix" />
            <feBlend mode="normal" in="SourceGraphic" in2="BackgroundImageFix" result="shape" />
            <feGaussianBlur stdDeviation="31.3701" result="effect1_foregroundBlur_817_47528" />
        </filter>
    </defs>
</svg>