<svg width="31" height="30" viewBox="0 0 31 30" fill="none" xmlns="http://www.w3.org/2000/svg">
    <rect x="0.5" width="30" height="30" rx="15" fill="#383E47" />
    <path
        d="M18.2505 14.0149C18.9285 14.4076 19.2676 14.6039 19.3814 14.8602C19.4806 15.0838 19.4806 15.3391 19.3814 15.5627C19.2676 15.8189 18.9285 16.0153 18.2505 16.4079L13.3431 19.2496C12.665 19.6422 12.326 19.8386 12.0478 19.8092C11.8051 19.7836 11.5847 19.656 11.4413 19.458C11.2769 19.231 11.2769 18.8384 11.2769 18.0531V12.3698C11.2769 11.5845 11.2769 11.1918 11.4413 10.9649C11.5847 10.7669 11.8051 10.6392 12.0478 10.6136C12.326 10.5843 12.665 10.7806 13.3431 11.1733L18.2505 14.0149Z"
        fill="white" />
</svg>